<?xml version="1.0" encoding="utf-8"?>
<!-- Generator: Adobe Illustrator 19.0.0, SVG Export Plug-In . SVG Version: 6.00 Build 0)  -->
<svg version="1.1" xmlns="http://www.w3.org/2000/svg" xmlns:xlink="http://www.w3.org/1999/xlink" x="0px" y="0px"
	 viewBox="-65 309.31995 1280 800" style="enable-background:new -65 309.31995 1280 800;" xml:space="preserve">
<style type="text/css">
	.st0{fill:#31383A;}
</style>
<g id="Layer_1">
	<path id="XMLID_37_" class="st0" d="M430.69397,676.95471c9.05145,0,17.246,3.66888,23.17725,9.60046l17.36826-17.36829
		c-10.37622-10.37653-24.71146-16.79449-40.5455-16.79449c-31.66794,0-57.34033,25.67206-57.34033,57.34015
		s25.67239,57.34033,57.34033,57.34033c15.83405,0,30.16928-6.41797,40.5455-16.79449l-17.36826-17.36823
		c-5.93124,5.93152-14.12579,9.60028-23.17725,9.60028c-18.1026,0-32.77786-14.67511-32.77786-32.77789
		C397.91611,691.63,412.59137,676.95471,430.69397,676.95471z"/>
	<path id="XMLID_20_" class="st0" d="M333.61917,666.35968c-11.33841-8.52545-23.30673-13.6925-37.41068-13.6925
		c-31.39252,0-57.15399,25.54272-57.15399,56.93506c0,31.39252,25.87085,56.93524,57.26337,56.93524
		c14.10394,0,25.96289-5.16711,37.3013-13.6925v13.30963h25.10648V653.58038h-25.10648V666.35968z M297.52487,745.10236
		c-18.92172,0-34.2612-15.33948-34.2612-34.26184c0-18.92249,15.33948-34.26196,34.2612-34.26196
		c18.92239,0,34.26184,15.33948,34.26184,34.26196C331.78671,729.76288,316.44727,745.10236,297.52487,745.10236z"/>
	<path id="XMLID_17_" class="st0" d="M616.07196,652.72144c-31.49524,0-57.12164,25.62634-57.12164,57.12146
		c0,31.49524,25.6264,57.12164,57.12164,57.12164c31.49573,0,57.12146-25.6264,57.12146-57.12164
		C673.19342,678.34778,647.56769,652.72144,616.07196,652.72144z M616.07178,745.3963
		c-18.94873,0-34.31024-15.36151-34.31024-34.31104c0-18.94971,15.36151-34.3111,34.31024-34.3111
		c18.94971,0,34.3111,15.36139,34.3111,34.3111C650.38287,730.03479,635.02148,745.3963,616.07178,745.3963z"/>
	<path id="XMLID_12_" class="st0" d="M510.40564,612.27612h-24.2966v40.2337v27.76868v35.95062
		c0,34.54773,14.61938,50.73541,45.69174,50.73541h4.38019h17.95856v-25.10651h-22.08936
		c-19.091,0-21.64453-8.19092-21.64453-25.71161v-40.6991h21.64453h17.23004v-4.10406v-14.86646v-3.63641
		c0-0.08252-38.87457-0.08252-38.87457-0.08252V612.27612z"/>
	<path id="XMLID_1_" class="st0" d="M730.06183,652.77045c-30.16846,0-44.27472,18.2395-44.27472,50.29352v63.90057h24.29657
		v-63.82385c0-16.25604,1.68481-26.07361,20.22015-26.07361h21.08411v-24.29663h-17.07361H730.06183z"/>
	<path id="XMLID_2_" class="st0" d="M211.03252,653.74347c-30.16846,0-44.27475,18.23944-44.27475,50.29346v63.90057h24.2966
		v-63.82385c0-16.25604,1.68478-26.07361,20.22012-26.07361h21.08411v-24.29657h-17.07356H211.03252z"/>
	<g id="XMLID_4_">
		<path id="XMLID_5_" class="st0" d="M99.15693,647.13159v119.83295h25.28603l0.19693-89.08759h32.019v-25.10651h-32.13731
			c0,0,0.00497-3.50562,0.11831-5.60486c0.31917-5.91638,4.54665-14.06262,13.54954-18.81342
			c5.32457-2.80975,16.03981-4.01971,26.56834-3.90533v-24.4054c-18.6274-0.03149-33.52997,2.42053-46.65907,10.65228
			C112.02324,614.50293,99.15693,626.44214,99.15693,647.13159z"/>
	</g>
	<path class="st0" d="M839.24744,652.77045v64.32733c0,13.51422-11.1875,24.50861-24.70166,24.50861
		c-13.51404,0-24.70154-10.99438-24.70154-24.50861v-64.32733h-24.29651v64.32733c0,27.02826,21.98523,49.01703,49.01233,49.01703
		c9.00854,0,16.5885-2.48511,24.68738-6.74353v23.43329c0,13.89447-13.76807,25.19757-25.10657,25.19757h-24.29663V831.94h24.29663
		c27.53613,0,49.40308-22.04236,49.40308-49.13544v-59.81781c0-1.93475,0-3.89233,0-5.88898v-64.32733H839.24744z"/>
</g>
<g id="_x2E_in">
	<circle id="XMLID_9_" class="st0" cx="936.81708" cy="624.81116" r="13.8673"/>
	<circle id="XMLID_7_" class="st0" cx="894.13141" cy="754.4295" r="13.86727"/>
	<polygon id="XMLID_6_" class="st0" points="924.71838,688.0603 924.71838,766.89386 948.91577,766.89386 948.91577,680.85822 
		948.91577,652.69977 924.71838,652.69977 	"/>
	<path id="XMLID_3_" class="st0" d="M1014.50543,652.68054c-27.02704,0-49.80804,21.60352-49.80804,48.15808v66.05524h24.29663
		v-66.05524c0-13.27728,11.18726-24.07898,24.70142-24.07898s24.70166,10.8017,24.70166,24.07898v66.05524h25.91638v-66.05524
		C1064.31348,674.28406,1041.53247,652.68054,1014.50543,652.68054z"/>
</g>
</svg>

